<?xml version="1.0" standalone="no"?>
<!DOCTYPE svg PUBLIC "-//W3C//DTD SVG 20010904//EN"
 "http://www.w3.org/TR/2001/REC-SVG-20010904/DTD/svg10.dtd">
<svg version="1.0" xmlns="http://www.w3.org/2000/svg"
 width="326.000000pt" height="326.000000pt" viewBox="0 0 326.000000 326.000000"
 preserveAspectRatio="xMidYMid meet">
<metadata>
Created by potrace 1.15, written by Peter Selinger 2001-2017
</metadata>
<g transform="translate(0.000000,326.000000) scale(0.100000,-0.100000)"
fill="#000000" stroke="none">
<path d="M0 1630 l0 -1630 1630 0 1630 0 0 1630 0 1630 -1630 0 -1630 0 0
-1630z m1106 1405 c191 -64 343 -200 425 -381 31 -67 55 -161 61 -229 l3 -40
-704 -3 -704 -2 6 72 c24 286 261 542 557 604 100 21 258 12 356 -21z m1214
-670 l0 -705 -23 0 c-90 0 -247 51 -344 112 -69 44 -169 146 -217 222 -176
280 -125 656 120 885 117 109 292 185 437 190 l27 1 0 -705z m220 673 c230
-73 410 -256 474 -480 65 -227 3 -489 -156 -663 -119 -131 -293 -220 -443
-227 l-60 -3 -3 703 -2 704 62 -7 c35 -3 92 -16 128 -27z m-949 -737 c-1 -25
-11 -77 -21 -117 -57 -221 -221 -398 -450 -485 -82 -31 -91 -32 -230 -32 -139
0 -148 1 -230 32 -194 74 -331 200 -415 384 -28 60 -63 209 -57 245 l3 22 702
-2 702 -3 -4 -44z m-538 -697 c192 -43 377 -190 465 -368 41 -84 72 -197 72
-263 l0 -38 -700 0 -700 0 0 44 c0 90 60 263 117 340 74 100 198 202 298 246
122 54 310 70 448 39z m1265 -686 l-3 -703 -45 3 c-71 5 -188 40 -261 78 -98
52 -177 120 -241 209 -206 286 -177 660 70 912 112 115 295 200 435 202 l47 1
-2 -702z m173 688 c234 -50 435 -232 513 -467 109 -326 -41 -690 -346 -843
-95 -47 -178 -72 -258 -78 l-45 -3 -3 703 -2 702 37 0 c21 0 68 -7 104 -14z
m-901 -748 c0 -61 -27 -163 -65 -243 -43 -90 -54 -104 -150 -200 -137 -135
-285 -196 -480 -197 -200 -1 -355 62 -496 202 -124 123 -193 260 -206 406 l-6
74 702 0 701 0 0 -42z"/>
</g>
</svg>
